<mxfile host="app.diagrams.net" modified="2023-09-22T07:14:28.737Z" agent="Mozilla/5.0 (Windows NT 10.0; Win64; x64; rv:109.0) Gecko/20100101 Firefox/117.0" etag="gxaROdpAOqAsvP9DmC2j" version="21.8.0" type="device">
  <diagram name="Page-1" id="ZpfezPk5MuoGUGfvG7_E">
    <mxGraphModel dx="778" dy="484" grid="1" gridSize="10" guides="1" tooltips="1" connect="1" arrows="1" fold="1" page="1" pageScale="1" pageWidth="850" pageHeight="1100" math="0" shadow="0">
      <root>
        <mxCell id="0" />
        <mxCell id="1" parent="0" />
        <mxCell id="AVP0JRcrg4ZeBesZcvpQ-24" style="edgeStyle=entityRelationEdgeStyle;orthogonalLoop=1;jettySize=auto;html=1;entryX=0;entryY=0.5;entryDx=0;entryDy=0;strokeColor=default;curved=1;strokeWidth=1;endArrow=none;endFill=0;" edge="1" parent="1" source="AVP0JRcrg4ZeBesZcvpQ-1" target="AVP0JRcrg4ZeBesZcvpQ-23">
          <mxGeometry relative="1" as="geometry" />
        </mxCell>
        <mxCell id="AVP0JRcrg4ZeBesZcvpQ-25" style="edgeStyle=entityRelationEdgeStyle;orthogonalLoop=1;jettySize=auto;html=1;entryX=0;entryY=0.5;entryDx=0;entryDy=0;strokeColor=default;curved=1;strokeWidth=1;endArrow=none;endFill=0;" edge="1" parent="1" source="AVP0JRcrg4ZeBesZcvpQ-1" target="AVP0JRcrg4ZeBesZcvpQ-22">
          <mxGeometry relative="1" as="geometry" />
        </mxCell>
        <mxCell id="AVP0JRcrg4ZeBesZcvpQ-27" style="edgeStyle=entityRelationEdgeStyle;orthogonalLoop=1;jettySize=auto;html=1;entryX=0;entryY=0.5;entryDx=0;entryDy=0;strokeColor=default;curved=1;strokeWidth=1;endArrow=none;endFill=0;" edge="1" parent="1" source="AVP0JRcrg4ZeBesZcvpQ-1" target="AVP0JRcrg4ZeBesZcvpQ-19">
          <mxGeometry relative="1" as="geometry" />
        </mxCell>
        <mxCell id="AVP0JRcrg4ZeBesZcvpQ-28" style="edgeStyle=entityRelationEdgeStyle;orthogonalLoop=1;jettySize=auto;html=1;entryX=0;entryY=0.5;entryDx=0;entryDy=0;strokeColor=default;curved=1;strokeWidth=1;endArrow=none;endFill=0;" edge="1" parent="1" source="AVP0JRcrg4ZeBesZcvpQ-1" target="AVP0JRcrg4ZeBesZcvpQ-18">
          <mxGeometry relative="1" as="geometry" />
        </mxCell>
        <mxCell id="AVP0JRcrg4ZeBesZcvpQ-29" style="edgeStyle=entityRelationEdgeStyle;orthogonalLoop=1;jettySize=auto;html=1;entryX=0;entryY=0.5;entryDx=0;entryDy=0;strokeColor=default;curved=1;strokeWidth=1;endArrow=none;endFill=0;" edge="1" parent="1" source="AVP0JRcrg4ZeBesZcvpQ-1" target="AVP0JRcrg4ZeBesZcvpQ-17">
          <mxGeometry relative="1" as="geometry" />
        </mxCell>
        <mxCell id="AVP0JRcrg4ZeBesZcvpQ-30" style="edgeStyle=entityRelationEdgeStyle;orthogonalLoop=1;jettySize=auto;html=1;entryX=0;entryY=0.5;entryDx=0;entryDy=0;strokeColor=default;curved=1;strokeWidth=1;endArrow=none;endFill=0;" edge="1" parent="1" source="AVP0JRcrg4ZeBesZcvpQ-1" target="AVP0JRcrg4ZeBesZcvpQ-16">
          <mxGeometry relative="1" as="geometry" />
        </mxCell>
        <mxCell id="AVP0JRcrg4ZeBesZcvpQ-31" style="edgeStyle=entityRelationEdgeStyle;orthogonalLoop=1;jettySize=auto;html=1;entryX=0;entryY=0.5;entryDx=0;entryDy=0;strokeColor=default;curved=1;strokeWidth=1;endArrow=none;endFill=0;" edge="1" parent="1" source="AVP0JRcrg4ZeBesZcvpQ-1" target="AVP0JRcrg4ZeBesZcvpQ-15">
          <mxGeometry relative="1" as="geometry" />
        </mxCell>
        <mxCell id="AVP0JRcrg4ZeBesZcvpQ-32" style="edgeStyle=entityRelationEdgeStyle;orthogonalLoop=1;jettySize=auto;html=1;entryX=0;entryY=0.5;entryDx=0;entryDy=0;strokeColor=default;curved=1;strokeWidth=1;endArrow=none;endFill=0;" edge="1" parent="1" source="AVP0JRcrg4ZeBesZcvpQ-1" target="AVP0JRcrg4ZeBesZcvpQ-14">
          <mxGeometry relative="1" as="geometry" />
        </mxCell>
        <mxCell id="AVP0JRcrg4ZeBesZcvpQ-33" style="edgeStyle=entityRelationEdgeStyle;orthogonalLoop=1;jettySize=auto;html=1;entryX=0;entryY=0.5;entryDx=0;entryDy=0;strokeColor=default;curved=1;strokeWidth=1;endArrow=none;endFill=0;" edge="1" parent="1" source="AVP0JRcrg4ZeBesZcvpQ-1" target="AVP0JRcrg4ZeBesZcvpQ-7">
          <mxGeometry relative="1" as="geometry" />
        </mxCell>
        <mxCell id="AVP0JRcrg4ZeBesZcvpQ-34" style="edgeStyle=entityRelationEdgeStyle;orthogonalLoop=1;jettySize=auto;html=1;entryX=0;entryY=0.5;entryDx=0;entryDy=0;strokeColor=default;curved=1;strokeWidth=1;endArrow=none;endFill=0;" edge="1" parent="1" source="AVP0JRcrg4ZeBesZcvpQ-1" target="AVP0JRcrg4ZeBesZcvpQ-2">
          <mxGeometry relative="1" as="geometry" />
        </mxCell>
        <mxCell id="AVP0JRcrg4ZeBesZcvpQ-1" value="Actor" style="shape=umlActor;verticalLabelPosition=bottom;verticalAlign=top;html=1;outlineConnect=0;" vertex="1" parent="1">
          <mxGeometry x="180" y="210" width="30" height="60" as="geometry" />
        </mxCell>
        <mxCell id="AVP0JRcrg4ZeBesZcvpQ-2" value="Create Account" style="ellipse;whiteSpace=wrap;html=1;" vertex="1" parent="1">
          <mxGeometry x="320" y="20" width="100" height="40" as="geometry" />
        </mxCell>
        <mxCell id="AVP0JRcrg4ZeBesZcvpQ-7" value="Login" style="ellipse;whiteSpace=wrap;html=1;" vertex="1" parent="1">
          <mxGeometry x="320" y="60" width="100" height="40" as="geometry" />
        </mxCell>
        <mxCell id="AVP0JRcrg4ZeBesZcvpQ-14" value="Create Channel" style="ellipse;whiteSpace=wrap;html=1;" vertex="1" parent="1">
          <mxGeometry x="320" y="100" width="100" height="40" as="geometry" />
        </mxCell>
        <mxCell id="AVP0JRcrg4ZeBesZcvpQ-15" value="Select Channel" style="ellipse;whiteSpace=wrap;html=1;" vertex="1" parent="1">
          <mxGeometry x="320" y="140" width="100" height="40" as="geometry" />
        </mxCell>
        <mxCell id="AVP0JRcrg4ZeBesZcvpQ-16" value="Send Message" style="ellipse;whiteSpace=wrap;html=1;" vertex="1" parent="1">
          <mxGeometry x="320" y="180" width="100" height="40" as="geometry" />
        </mxCell>
        <mxCell id="AVP0JRcrg4ZeBesZcvpQ-17" value="Add User to Channel" style="ellipse;whiteSpace=wrap;html=1;" vertex="1" parent="1">
          <mxGeometry x="320" y="220" width="100" height="40" as="geometry" />
        </mxCell>
        <mxCell id="AVP0JRcrg4ZeBesZcvpQ-18" value="Remove User from Channel" style="ellipse;whiteSpace=wrap;html=1;" vertex="1" parent="1">
          <mxGeometry x="320" y="260" width="100" height="40" as="geometry" />
        </mxCell>
        <mxCell id="AVP0JRcrg4ZeBesZcvpQ-19" value="Change Channel Name" style="ellipse;whiteSpace=wrap;html=1;" vertex="1" parent="1">
          <mxGeometry x="320" y="300" width="100" height="40" as="geometry" />
        </mxCell>
        <mxCell id="AVP0JRcrg4ZeBesZcvpQ-22" value="Delete Message" style="ellipse;whiteSpace=wrap;html=1;" vertex="1" parent="1">
          <mxGeometry x="320" y="340" width="100" height="40" as="geometry" />
        </mxCell>
        <mxCell id="AVP0JRcrg4ZeBesZcvpQ-23" value="&lt;div&gt;Edit Message&lt;/div&gt;" style="ellipse;whiteSpace=wrap;html=1;" vertex="1" parent="1">
          <mxGeometry x="320" y="380" width="100" height="40" as="geometry" />
        </mxCell>
      </root>
    </mxGraphModel>
  </diagram>
</mxfile>
